<svg width="84" height="13" viewBox="0 0 84 13" fill="none" xmlns="http://www.w3.org/2000/svg">
<path d="M79.272 12.267V3.78703H80.744V6.09103L80.6 5.51503C80.8346 4.92836 81.2293 4.48036 81.784 4.17103C82.3386 3.8617 83.0213 3.70703 83.832 3.70703V5.19503C83.768 5.18436 83.704 5.17903 83.64 5.17903C83.5866 5.17903 83.5333 5.17903 83.48 5.17903C82.6586 5.17903 82.008 5.42436 81.528 5.91503C81.048 6.4057 80.808 7.11503 80.808 8.04303V12.267H79.272Z" fill="#494545"/>
<path d="M73.2512 12.363C72.3445 12.363 71.5445 12.1764 70.8512 11.803C70.1685 11.4297 69.6352 10.9177 69.2512 10.267C68.8778 9.61636 68.6912 8.8697 68.6912 8.02703C68.6912 7.18437 68.8725 6.4377 69.2352 5.78703C69.6085 5.13636 70.1152 4.6297 70.7552 4.26703C71.4058 3.8937 72.1365 3.70703 72.9472 3.70703C73.7685 3.70703 74.4938 3.88836 75.1232 4.25103C75.7525 4.6137 76.2432 5.1257 76.5952 5.78703C76.9578 6.4377 77.1392 7.20036 77.1392 8.07503C77.1392 8.13903 77.1338 8.2137 77.1232 8.29903C77.1232 8.38436 77.1178 8.46436 77.1072 8.53903H69.8912V7.43503H76.3072L75.6832 7.81903C75.6938 7.27503 75.5818 6.7897 75.3472 6.36303C75.1125 5.93636 74.7872 5.6057 74.3712 5.37103C73.9658 5.1257 73.4912 5.00303 72.9472 5.00303C72.4138 5.00303 71.9392 5.1257 71.5232 5.37103C71.1072 5.6057 70.7818 5.9417 70.5472 6.37903C70.3125 6.8057 70.1952 7.29636 70.1952 7.85103V8.10703C70.1952 8.67237 70.3232 9.17903 70.5792 9.62703C70.8458 10.0644 71.2138 10.4057 71.6832 10.651C72.1525 10.8964 72.6912 11.019 73.2992 11.019C73.8005 11.019 74.2538 10.9337 74.6592 10.763C75.0752 10.5924 75.4378 10.3364 75.7472 9.99503L76.5952 10.987C76.2112 11.435 75.7312 11.7764 75.1552 12.011C74.5898 12.2457 73.9552 12.363 73.2512 12.363Z" fill="#494545"/>
<path d="M61.2075 10.219L61.2395 8.25102L66.1195 3.78702H67.9755L64.2315 7.46702L63.3995 8.17102L61.2075 10.219ZM59.9595 12.267V0.39502H61.4955V12.267H59.9595ZM66.4395 12.267L63.1115 8.13902L64.1035 6.90702L68.3275 12.267H66.4395Z" fill="#494545"/>
<path d="M55.6611 12.267V10.475L55.5811 10.139V7.08303C55.5811 6.43236 55.3891 5.93103 55.0051 5.57903C54.6318 5.21637 54.0664 5.03503 53.3091 5.03503C52.8078 5.03503 52.3171 5.12037 51.8371 5.29103C51.3571 5.45103 50.9518 5.6697 50.6211 5.94703L49.9811 4.79503C50.4184 4.44303 50.9411 4.17636 51.5491 3.99503C52.1678 3.80303 52.8131 3.70703 53.4851 3.70703C54.6478 3.70703 55.5438 3.9897 56.1731 4.55503C56.8024 5.12037 57.1171 5.98436 57.1171 7.14703V12.267H55.6611ZM52.8771 12.363C52.2478 12.363 51.6931 12.2564 51.2131 12.043C50.7438 11.8297 50.3811 11.5364 50.1251 11.163C49.8691 10.779 49.7411 10.347 49.7411 9.86703C49.7411 9.40837 49.8478 8.99236 50.0611 8.61903C50.2851 8.2457 50.6424 7.94703 51.1331 7.72303C51.6344 7.49903 52.3064 7.38703 53.1491 7.38703H55.8371V8.49103H53.2131C52.4451 8.49103 51.9278 8.61903 51.6611 8.87503C51.3944 9.13103 51.2611 9.44036 51.2611 9.80303C51.2611 10.219 51.4264 10.555 51.7571 10.811C52.0878 11.0564 52.5464 11.179 53.1331 11.179C53.7091 11.179 54.2104 11.051 54.6371 10.795C55.0744 10.539 55.3891 10.1657 55.5811 9.67503L55.8851 10.731C55.6824 11.2324 55.3251 11.6324 54.8131 11.931C54.3011 12.219 53.6558 12.363 52.8771 12.363Z" fill="#494545"/>
<path d="M44.6105 12.363C43.7039 12.363 42.9039 12.1764 42.2105 11.803C41.5279 11.4297 40.9945 10.9177 40.6105 10.267C40.2372 9.61636 40.0505 8.8697 40.0505 8.02703C40.0505 7.18437 40.2319 6.4377 40.5945 5.78703C40.9679 5.13636 41.4745 4.6297 42.1145 4.26703C42.7652 3.8937 43.4959 3.70703 44.3065 3.70703C45.1279 3.70703 45.8532 3.88836 46.4825 4.25103C47.1119 4.6137 47.6025 5.1257 47.9545 5.78703C48.3172 6.4377 48.4985 7.20036 48.4985 8.07503C48.4985 8.13903 48.4932 8.2137 48.4825 8.29903C48.4825 8.38436 48.4772 8.46436 48.4665 8.53903H41.2505V7.43503H47.6665L47.0425 7.81903C47.0532 7.27503 46.9412 6.7897 46.7065 6.36303C46.4719 5.93636 46.1465 5.6057 45.7305 5.37103C45.3252 5.1257 44.8505 5.00303 44.3065 5.00303C43.7732 5.00303 43.2985 5.1257 42.8825 5.37103C42.4665 5.6057 42.1412 5.9417 41.9065 6.37903C41.6719 6.8057 41.5545 7.29636 41.5545 7.85103V8.10703C41.5545 8.67237 41.6825 9.17903 41.9385 9.62703C42.2052 10.0644 42.5732 10.4057 43.0425 10.651C43.5119 10.8964 44.0505 11.019 44.6585 11.019C45.1599 11.019 45.6132 10.9337 46.0185 10.763C46.4345 10.5924 46.7972 10.3364 47.1065 9.99503L47.9545 10.987C47.5705 11.435 47.0905 11.7764 46.5145 12.011C45.9492 12.2457 45.3145 12.363 44.6105 12.363Z" fill="#494545"/>
<path d="M34.4596 12.267V3.78703H35.9316V6.09103L35.7876 5.51503C36.0223 4.92836 36.4169 4.48036 36.9716 4.17103C37.5263 3.8617 38.2089 3.70703 39.0196 3.70703V5.19503C38.9556 5.18436 38.8916 5.17903 38.8276 5.17903C38.7743 5.17903 38.7209 5.17903 38.6676 5.17903C37.8463 5.17903 37.1956 5.42436 36.7156 5.91503C36.2356 6.4057 35.9956 7.11503 35.9956 8.04303V12.267H34.4596Z" fill="#494545"/>
<path d="M28.0493 12.363C27.324 12.363 26.668 12.203 26.0813 11.883C25.5053 11.5524 25.0467 11.067 24.7053 10.427C24.3747 9.78702 24.2093 8.98702 24.2093 8.02702C24.2093 7.06702 24.38 6.26702 24.7213 5.62702C25.0733 4.98702 25.5373 4.50702 26.1133 4.18702C26.7 3.86702 27.3453 3.70702 28.0493 3.70702C28.8813 3.70702 29.6173 3.88835 30.2573 4.25102C30.8973 4.61369 31.404 5.12035 31.7773 5.77102C32.1507 6.41102 32.3373 7.16302 32.3373 8.02702C32.3373 8.89102 32.1507 9.64835 31.7773 10.299C31.404 10.9497 30.8973 11.4564 30.2573 11.819C29.6173 12.1817 28.8813 12.363 28.0493 12.363ZM23.5533 12.267V0.39502H25.0893V6.04302L24.9293 8.01102L25.0253 9.97902V12.267H23.5533ZM27.9213 11.019C28.4653 11.019 28.9507 10.8964 29.3773 10.651C29.8147 10.4057 30.156 10.059 30.4013 9.61102C30.6573 9.15235 30.7853 8.62435 30.7853 8.02702C30.7853 7.41902 30.6573 6.89635 30.4013 6.45902C30.156 6.01102 29.8147 5.66435 29.3773 5.41902C28.9507 5.17369 28.4653 5.05102 27.9213 5.05102C27.388 5.05102 26.9027 5.17369 26.4653 5.41902C26.0387 5.66435 25.6973 6.01102 25.4413 6.45902C25.196 6.89635 25.0733 7.41902 25.0733 8.02702C25.0733 8.62435 25.196 9.15235 25.4413 9.61102C25.6973 10.059 26.0387 10.4057 26.4653 10.651C26.9027 10.8964 27.388 11.019 27.9213 11.019Z" fill="#494545"/>
<path d="M17.5324 12.363C16.6257 12.363 15.8257 12.1764 15.1324 11.803C14.4497 11.4297 13.9164 10.9177 13.5324 10.267C13.1591 9.61636 12.9724 8.8697 12.9724 8.02703C12.9724 7.18437 13.1537 6.4377 13.5164 5.78703C13.8897 5.13636 14.3964 4.6297 15.0364 4.26703C15.6871 3.8937 16.4177 3.70703 17.2284 3.70703C18.0497 3.70703 18.7751 3.88836 19.4044 4.25103C20.0337 4.6137 20.5244 5.1257 20.8764 5.78703C21.2391 6.4377 21.4204 7.20036 21.4204 8.07503C21.4204 8.13903 21.4151 8.2137 21.4044 8.29903C21.4044 8.38436 21.3991 8.46436 21.3884 8.53903H14.1724V7.43503H20.5884L19.9644 7.81903C19.9751 7.27503 19.8631 6.7897 19.6284 6.36303C19.3937 5.93636 19.0684 5.6057 18.6524 5.37103C18.2471 5.1257 17.7724 5.00303 17.2284 5.00303C16.6951 5.00303 16.2204 5.1257 15.8044 5.37103C15.3884 5.6057 15.0631 5.9417 14.8284 6.37903C14.5937 6.8057 14.4764 7.29636 14.4764 7.85103V8.10703C14.4764 8.67237 14.6044 9.17903 14.8604 9.62703C15.1271 10.0644 15.4951 10.4057 15.9644 10.651C16.4337 10.8964 16.9724 11.019 17.5804 11.019C18.0817 11.019 18.5351 10.9337 18.9404 10.763C19.3564 10.5924 19.7191 10.3364 20.0284 9.99503L20.8764 10.987C20.4924 11.435 20.0124 11.7764 19.4364 12.011C18.8711 12.2457 18.2364 12.363 17.5324 12.363Z" fill="#494545"/>
<path d="M8.43679 12.363C7.57279 12.363 6.79945 12.1764 6.11679 11.803C5.44479 11.4297 4.91679 10.9177 4.53279 10.267C4.14879 9.61636 3.95679 8.8697 3.95679 8.02703C3.95679 7.18437 4.14879 6.4377 4.53279 5.78703C4.91679 5.13636 5.44479 4.6297 6.11679 4.26703C6.79945 3.8937 7.57279 3.70703 8.43679 3.70703C9.20479 3.70703 9.88745 3.8617 10.4848 4.17103C11.0928 4.4697 11.5621 4.9177 11.8928 5.51503L10.7248 6.26703C10.4475 5.85103 10.1061 5.54703 9.70079 5.35503C9.30612 5.15236 8.87945 5.05103 8.42079 5.05103C7.86612 5.05103 7.37012 5.1737 6.93279 5.41903C6.49545 5.66436 6.14879 6.01103 5.89279 6.45903C5.63679 6.89636 5.50879 7.41903 5.50879 8.02703C5.50879 8.63503 5.63679 9.16303 5.89279 9.61103C6.14879 10.059 6.49545 10.4057 6.93279 10.651C7.37012 10.8964 7.86612 11.019 8.42079 11.019C8.87945 11.019 9.30612 10.923 9.70079 10.731C10.1061 10.5284 10.4475 10.219 10.7248 9.80303L11.8928 10.539C11.5621 11.1257 11.0928 11.579 10.4848 11.899C9.88745 12.2084 9.20479 12.363 8.43679 12.363Z" fill="#494545"/>
<path d="M0.272 12.267V3.78703H1.808V12.267H0.272ZM1.04 2.15503C0.741333 2.15503 0.490667 2.05903 0.288 1.86703C0.096 1.67503 0 1.44036 0 1.16303C0 0.87503 0.096 0.635029 0.288 0.443029C0.490667 0.251029 0.741333 0.155029 1.04 0.155029C1.33867 0.155029 1.584 0.251029 1.776 0.443029C1.97867 0.624362 2.08 0.853696 2.08 1.13103C2.08 1.41903 1.984 1.66436 1.792 1.86703C1.6 2.05903 1.34933 2.15503 1.04 2.15503Z" fill="#494545"/>
</svg>
