<svg width="49" height="13" viewBox="0 0 49 13" fill="none" xmlns="http://www.w3.org/2000/svg">
<path d="M41.4494 9.824L41.4814 7.856L46.3614 3.392H48.2174L44.4734 7.072L43.6414 7.776L41.4494 9.824ZM40.2014 11.872V0H41.7374V11.872H40.2014ZM46.6814 11.872L43.3534 7.744L44.3454 6.512L48.5694 11.872H46.6814Z" fill="#494545"/>
<path d="M35.7327 11.872V0H37.2687V11.872H35.7327Z" fill="#494545"/>
<path d="M29.2327 11.76C29.0122 11.2221 29.2592 10.853 29.2619 10.2717C29.2628 10.0849 29.2619 9.79328 29.2619 9.79328C29.2619 9.79328 29.2619 7.88555 29.2619 6.96888C29.2619 6.05221 26.0164 5.46761 25.2327 5.26001C24.9235 5.17811 22.3928 4.98737 19.8259 4.98737C18.1267 4.98737 16.4637 5.06623 14.8368 5.22397C13.2099 5.37184 11.8361 5.57393 10.7153 5.83025C9.59455 6.08657 7.06382 5.09088 8.54611 4.76556C10.0284 4.44023 11.7999 4.19377 13.8606 4.02618C15.9575 3.84873 18.1448 3.76001 20.4225 3.76001C24.3632 3.76001 27.4001 4.02125 29.5331 4.54374C31.6661 5.06623 32.2327 5.76001 32.7327 6.93931C32.7327 6.93931 34.2001 10.548 32.7327 11.6713C31.647 12.5024 29.7512 13.0251 29.2327 11.76ZM18.3617 11.76C16.2287 11.76 14.3487 11.6614 12.7218 11.4643C11.1311 11.2671 9.90185 10.996 9.03417 10.651C8.16649 10.2961 7.73267 9.89679 7.73267 9.45317C7.73267 9.02926 8.0942 8.64479 8.81726 8.29975C9.57648 7.95471 10.7876 7.67868 12.4507 7.47165C14.1499 7.26463 18.7327 6.76001 19.2327 6.76001C19.2327 6.76001 28.1218 6.05144 28.3943 7.16112C28.4893 7.54809 28.4397 7.78558 28.3943 8.18145C28.3561 8.51432 19.5006 8.18145 19.5006 8.18145C16.8975 8.18145 15.1441 8.29975 14.2403 8.53635C13.3364 8.77295 12.8845 9.05884 12.8845 9.39402C12.8845 9.77849 13.4449 10.089 14.5656 10.3256C15.6864 10.5524 17.241 10.6657 19.2294 10.6657C21.1817 10.6657 22.8809 10.5474 24.327 10.3108C25.8093 10.0742 26.8758 9.7292 27.5266 9.27572C28.1773 8.82224 29.2439 9.78835 28.557 10.2517C27.87 10.715 26.6589 11.0847 24.9236 11.3607C23.1882 11.6269 21.0009 11.76 18.3617 11.76Z" fill="#409FBC"/>
<path d="M4.96003 11.9681C4.1067 11.9681 3.44537 11.7388 2.97604 11.2801C2.5067 10.8215 2.27203 10.1655 2.27203 9.31213V1.53613H3.80804V9.24813C3.80804 9.7068 3.92004 10.0588 4.14404 10.3041C4.3787 10.5495 4.70937 10.6721 5.13603 10.6721C5.61603 10.6721 6.01604 10.5388 6.33604 10.2721L6.81603 11.3761C6.58137 11.5788 6.2987 11.7281 5.96803 11.8241C5.64803 11.9201 5.31203 11.9681 4.96003 11.9681ZM0.832031 4.65613V3.39213H6.24004V4.65613H0.832031Z" fill="#494545"/>
</svg>
